<svg xmlns="http://www.w3.org/2000/svg" viewBox="0 0 300 280">
  <defs>
    <radialGradient id="purpleGradient" cx="50%" cy="50%" r="75%">
      <stop offset="0%" stop-color="#6D28D9"/>
      <stop offset="100%" stop-color="#C084FC"/>
    </radialGradient>
  </defs>

  <g transform="translate(0,280) scale(0.1,-0.1)" fill="url(#purpleGradient)" stroke="none">
    <path d="M1415 2453 c-44 -4 -119 -18 -177 -34 l-37 -10 44 -57 c108 -140 198
    -329 250 -524 104 -395 28 -841 -201 -1185 -31 -46 -54 -86 -52 -88 12 -12
    196 -36 255 -33 l68 3 46 83 c213 382 273 858 164 1295 -41 163 -115 337 -208
    490 -46 74 -37 70 -152 60z"/>
    <path d="M1938 2313 c39 -75 95 -239 127 -362 68 -270 74 -625 15 -911 -24
    -113 -72 -271 -106 -348 -13 -30 -22 -57 -20 -60 8 -8 138 84 204 144 87 78
    154 170 213 289 76 153 92 228 93 420 0 137 -3 172 -23 245 -71 264 -234 471
    -484 615 l-49 28 30 -60z"/>
    <path d="M858 2207 c-37 -34 -81 -78 -98 -99 l-31 -36 50 -66 c62 -83 123
    -208 153 -311 33 -115 33 -344 0 -459 -30 -104 -81 -213 -136 -290 -42 -59
    -45 -69 -61 -177 -9 -63 -19 -124 -21 -135 -5 -21 -2 -21 121 14 l127 36 42
    56 c309 406 326 964 43 1385 -48 71 -107 145 -116 145 -3 0 -36 -28 -73 -63z"/>
    <path d="M577 1770 c-38 -110 -45 -383 -13 -510 10 -41 22 -79 26 -83 11 -13
    56 110 70 192 20 118 2 237 -54 362 -15 34 -26 48 -29 39z"/>
  </g>
</svg>
